<?xml version="1.0" encoding="utf-8"?>
<!-- Generator: Adobe Illustrator 22.0.1, SVG Export Plug-In . SVG Version: 6.00 Build 0)  -->
<svg version="1.1" id="Capa_1" xmlns="http://www.w3.org/2000/svg" xmlns:xlink="http://www.w3.org/1999/xlink" x="0px" y="0px"
	 viewBox="0 0 297.4 186.3" style="enable-background:new 0 0 297.4 186.3;" xml:space="preserve">
<style type="text/css">
	.st0{fill:#292929;}
	.st1{clip-path:url(#SVGID_2_);}
	.st2{fill:#FFFFFF;}
	.st3{opacity:0.2;}
	.st4{opacity:0.1;fill:#292929;enable-background:new    ;}
	.st5{fill:#1A1A1A;}
</style>
<g>
	<path class="st0" d="M75.1,84.2c0,0-0.1,0-0.3,0c-0.4,0-1.3-0.1-2.1-0.4l-0.2-0.1l-0.2-0.1c-0.8-0.4-1.5-0.9-1.9-1.2
		c-0.1-0.1-0.2-0.2-0.2-0.2s-2,1.9-3.4,6c0,0.1-0.1,0.2-0.1,0.4c-1.4,4.2-3.6,12.2-3.6,12.2s-3.4,3.7-2.7,4.7c0.7,1,1.8,1.4,2.8,1.8
		c1,0.4,2.1,0.7,3.3,0.5c1.2-0.2,1.2-5.2,1.2-5.2s3.9-7.4,5.7-11.4c0.1-0.1,0.1-0.2,0.2-0.3C75.3,86.9,75.1,84.2,75.1,84.2
		L75.1,84.2z"/>
	<path class="st0" d="M102.9,47.7c-1.7,2.1-3.4,4.1-5.1,5.7c-6.1,5.9-11.9,8.4-16.1,6.8c-4-1.6-6.5-7-7.1-14.9
		c-0.2-2.6-0.2-5.5,0.1-8.6c0.6-7.7,4.6-18.1,11.9-22.6c4.1-2.6,8.7-2.9,13.7-1c4.9,1.9,8.1,5.3,9.4,10
		C111.8,31.4,107.7,41.7,102.9,47.7L102.9,47.7z M74.4,80.7L74.4,80.7c-0.4,0-0.8-0.1-1.1-0.4c1.8-7.1,2.5-14.2,2.7-19.4
		c0.5-0.6,1-1,1.5-1.2c1,1.1,2.2,1.9,3.5,2.4c1.3,0.5,2.8,0.7,4.4,0.6c0.2,0.4,0.4,0.9,0.4,1.7C82.3,68.4,77.9,74.1,74.4,80.7
		L74.4,80.7z M111.6,22.5c-1.4-5.3-5.1-9.3-10.6-11.4C95.5,9,90.1,9.3,85.4,12.3c-7.9,4.9-12.2,16-12.8,24.2
		c-0.3,3.3-0.1,6.3,0.1,9.1c0.3,2.8,0.7,5.3,1.1,7.5c0.3,1.5,0.6,15.8-3.4,29.3c0.3,0.3,1.1,0.8,1.9,1.2l0.2,0.1l0.2,0.1
		c0.8,0.3,1.7,0.3,2.1,0.4c6.3-12.7,16.4-23,17.5-23.9c2.1-1.6,4.4-3.3,6.8-5.5c1.8-1.7,3.7-3.6,5.4-5.8
		C109.7,42.6,114.1,31.5,111.6,22.5L111.6,22.5z"/>
	<path class="st0" d="M100.2,13.1c-1.4,4-2.9,7.9-4.4,11.9c-0.8,2-1.7,3.9-2.4,5.8c-0.8,2-1.5,3.9-2.3,5.9c-1.5,4-2.9,7.9-4.5,11.8
		c-1.5,3.9-3.2,7.8-4.9,11.7l0,0c1.4-4,2.9-7.9,4.4-11.9c1.5-3.9,3.1-7.8,4.7-11.7c0.8-1.9,1.6-3.9,2.4-5.9c0.8-2,1.5-4,2.2-5.9
		C96.9,20.8,98.5,16.9,100.2,13.1L100.2,13.1L100.2,13.1z"/>
	<path class="st0" d="M104,15c-1.3,3.9-2.8,7.7-4.3,11.5c-0.8,1.9-1.6,3.8-2.3,5.6c-0.8,1.9-1.5,3.8-2.2,5.7
		c-1.4,3.8-2.8,7.6-4.3,11.4c-1.5,3.8-3.1,7.6-4.7,11.3l-0.1,0c1.3-3.9,2.8-7.7,4.2-11.5c1.5-3.8,3-7.6,4.6-11.3
		c0.8-1.9,1.6-3.8,2.3-5.7c0.7-1.9,1.4-3.8,2.1-5.7C100.7,22.5,102.3,18.8,104,15L104,15L104,15z"/>
	<path class="st0" d="M91.6,12c-1.2,3.4-2.4,6.8-3.8,10.1c-0.7,1.7-1.4,3.3-2.1,5c-0.7,1.7-1.3,3.4-1.9,5.1
		c-1.2,3.4-2.5,6.8-3.8,10.1c-1.3,3.4-2.7,6.7-4.2,10l0,0c1.2-3.4,2.4-6.8,3.7-10.2c1.3-3.4,2.7-6.7,4.1-10c0.7-1.7,1.4-3.3,2-5
		c0.7-1.7,1.2-3.4,1.9-5.1C88.8,18.7,90.1,15.3,91.6,12L91.6,12L91.6,12z"/>
	<path class="st0" d="M96.2,12c-1.3,3.9-2.8,7.7-4.3,11.5c-0.8,1.9-1.6,3.8-2.3,5.6c-0.8,1.9-1.5,3.8-2.2,5.7
		c-1.4,3.8-2.8,7.6-4.3,11.4c-1.5,3.8-3.1,7.6-4.7,11.3l0,0c1.3-3.9,2.8-7.7,4.2-11.5c1.5-3.8,3-7.6,4.6-11.3
		c0.8-1.9,1.6-3.8,2.3-5.7c0.7-1.9,1.4-3.8,2.1-5.7C92.9,19.5,94.5,15.7,96.2,12L96.2,12L96.2,12z"/>
	<path class="st0" d="M86.3,14.2c-0.8,2.6-1.7,5.1-2.8,7.6C83,23,82.5,24.2,82,25.5c-0.5,1.2-1,2.5-1.4,3.8c-0.9,2.5-1.8,5-2.8,7.5
		c-1,2.5-2,5-3.2,7.4l0,0c0.8-2.6,1.7-5.1,2.7-7.6c1-2.5,2-5,3.1-7.4c0.5-1.2,1.1-2.5,1.5-3.7c0.5-1.3,0.9-2.5,1.3-3.8
		C84.1,19.1,85.1,16.6,86.3,14.2L86.3,14.2L86.3,14.2z"/>
	<path class="st0" d="M107.2,18.2c-1.2,3.4-2.4,6.8-3.8,10.1c-0.7,1.7-1.4,3.3-2.1,5c-0.7,1.7-1.3,3.4-1.9,5.1
		c-1.2,3.4-2.5,6.8-3.8,10.1c-1.3,3.4-2.7,6.7-4.2,10l0,0c1.2-3.4,2.4-6.8,3.7-10.2c1.3-3.4,2.7-6.7,4.1-10c0.7-1.7,1.4-3.3,2-5
		c0.7-1.7,1.2-3.4,1.9-5.1C104.3,24.8,105.7,21.4,107.2,18.2L107.2,18.2L107.2,18.2z"/>
	<path class="st0" d="M109.7,23.4c-0.8,2.6-1.7,5.1-2.8,7.6c-0.5,1.2-1.1,2.5-1.6,3.7c-0.5,1.2-1,2.5-1.4,3.8
		c-0.9,2.5-1.8,5-2.8,7.5c-1,2.5-2,5-3.2,7.4l0,0c0.8-2.6,1.7-5.1,2.7-7.6c1-2.5,2-5,3.1-7.4c0.5-1.2,1.1-2.5,1.5-3.7
		c0.5-1.3,0.9-2.5,1.4-3.8C107.5,28.3,108.5,25.8,109.7,23.4L109.7,23.4L109.7,23.4z"/>
	<path class="st0" d="M106.5,42c-2.6-0.8-5.2-1.8-7.7-2.8c-1.3-0.5-2.5-1.1-3.8-1.6c-1.3-0.5-2.6-1-3.8-1.5
		c-2.6-0.9-5.2-1.9-7.7-2.9c-2.5-1-5.1-2.1-7.6-3.2l0,0c2.6,0.8,5.2,1.8,7.7,2.8c2.6,1,5.1,2,7.6,3.1c1.3,0.5,2.5,1.1,3.8,1.5
		c1.3,0.5,2.6,0.9,3.9,1.4C101.5,39.8,104.1,40.8,106.5,42L106.5,42L106.5,42z"/>
	<path class="st0" d="M108.7,36.9c-2.6-0.8-5.2-1.8-7.8-2.8c-1.3-0.5-2.5-1.1-3.8-1.6c-1.3-0.5-2.6-1-3.9-1.5
		C90.6,30,88,29.1,85.4,28c-2.6-1-5.1-2.1-7.6-3.3l0,0c2.6,0.9,5.2,1.8,7.8,2.8c2.6,1,5.1,2,7.7,3.1c1.3,0.5,2.5,1.1,3.8,1.6
		c1.3,0.5,2.6,0.9,3.9,1.4C103.6,34.6,106.2,35.7,108.7,36.9L108.7,36.9L108.7,36.9z"/>
	<path class="st0" d="M95.4,55.7c-1.8-0.5-3.5-1.1-5.2-1.8c-0.8-0.4-1.7-0.8-2.5-1.1c-0.9-0.4-1.7-0.7-2.6-1
		c-3.5-1.2-6.9-2.5-10.2-4.1l0,0c3.5,1,7,2.4,10.3,3.9c0.8,0.4,1.7,0.7,2.5,1.1c0.9,0.3,1.7,0.6,2.6,0.9
		C92,54.1,93.7,54.8,95.4,55.7L95.4,55.7L95.4,55.7z"/>
	<path class="st0" d="M99.8,51.4c-2.2-0.7-4.3-1.4-6.4-2.3c-1-0.4-2.1-0.9-3.1-1.4c-1-0.4-2.1-0.8-3.2-1.2
		c-4.3-1.5-8.5-3.1-12.6-5.1l0,0c4.3,1.4,8.6,3,12.7,4.9c1,0.5,2.1,0.9,3.2,1.3c1.1,0.4,2.1,0.7,3.2,1.1
		C95.7,49.5,97.8,50.4,99.8,51.4L99.8,51.4L99.8,51.4z"/>
	<path class="st0" d="M103.6,46.9c-2.5-0.8-4.9-1.7-7.3-2.6c-1.2-0.5-2.4-1.1-3.6-1.5c-1.2-0.5-2.4-0.9-3.6-1.4
		c-4.9-1.7-9.7-3.6-14.4-5.8l0,0c4.9,1.6,9.7,3.5,14.4,5.5c1.2,0.5,2.4,1,3.6,1.5c1.2,0.5,2.4,0.9,3.6,1.3
		C98.9,44.7,101.3,45.7,103.6,46.9L103.6,46.9L103.6,46.9z"/>
	<path class="st0" d="M89.6,59.4c-1.2-0.3-2.3-0.6-3.4-1.1c-0.5-0.3-1.1-0.5-1.6-0.8c-0.5-0.2-1.1-0.4-1.7-0.6
		c-2.3-0.7-4.5-1.5-6.5-2.7l0,0c2.3,0.6,4.5,1.4,6.6,2.5c0.5,0.3,1.1,0.5,1.6,0.7c0.6,0.2,1.1,0.3,1.7,0.5
		C87.6,58.3,88.6,58.8,89.6,59.4L89.6,59.4L89.6,59.4z"/>
	<path class="st0" d="M110,31.4c-2.5-0.8-5-1.7-7.4-2.7c-1.2-0.5-2.4-1.1-3.6-1.6c-1.2-0.5-2.5-1-3.7-1.4c-2.5-0.9-4.9-1.8-7.4-2.8
		c-2.4-1-4.9-2-7.3-3.1l0,0c2.5,0.8,5,1.7,7.4,2.7c2.5,0.9,4.9,2,7.3,3c1.2,0.5,2.4,1,3.7,1.5c1.2,0.5,2.5,0.9,3.7,1.3
		C105.2,29.2,107.6,30.2,110,31.4L110,31.4L110,31.4z"/>
	<path class="st0" d="M110,25.4c-2.2-0.7-4.3-1.4-6.4-2.3c-1-0.4-2.1-0.9-3.1-1.4c-1.1-0.4-2.1-0.8-3.2-1.2
		c-4.3-1.5-8.6-3.1-12.7-5.1l0,0c4.4,1.4,8.6,3,12.8,4.9c1,0.5,2.1,0.9,3.2,1.3c1.1,0.4,2.2,0.7,3.2,1.1
		C105.9,23.5,108,24.4,110,25.4L110,25.4L110,25.4z"/>
	<path class="st0" d="M107.3,18.4c-1.4-0.4-2.7-0.8-4.1-1.4c-0.7-0.3-1.3-0.6-1.9-0.9c-0.7-0.3-1.3-0.5-2-0.7
		c-2.7-0.9-5.4-1.9-7.9-3.2l0,0c2.8,0.7,5.4,1.8,8,3c0.6,0.3,1.3,0.6,2,0.8c0.7,0.2,1.4,0.4,2,0.7C104.8,17.1,106.1,17.6,107.3,18.4
		L107.3,18.4L107.3,18.4z"/>
	<path class="st0" d="M70.3,82.3c0.7,0.6,1.4,1.1,2.2,1.4c0.8,0.3,1.7,0.5,2.6,0.5l0,0.1c-0.5,0.2-0.9,0.3-1.4,0.3
		c-0.5,0-1-0.1-1.4-0.2c-0.5-0.2-0.9-0.5-1.2-0.8C70.7,83.2,70.4,82.8,70.3,82.3L70.3,82.3L70.3,82.3z"/>
</g>
<path class="st0" d="M82.5,80.3H43.3c-0.1-1.1-0.1-2.1-0.1-3.2c1.4-0.3,2.8-0.6,4.2-0.8c1.6-0.3,3.2-0.6,4.8-0.9
	c3.2-0.5,6.5-1,9.7-1.4c3.2-0.4,6.5-0.8,9.7-1.1c1.6-0.1,3.2-0.2,4.8-0.2c0,0,0,0,0.1,0c0.3,0,0.7,0,1,0c1.3,0,2.6,0.1,3.9,0.3
	l0-0.1C82.1,75.3,82.5,77.7,82.5,80.3"/>
<path class="st0" d="M43.3,76.9c0-0.8,0-1.5,0.1-2.3c0-1.3,0.2-2.5,0.3-3.8c0.1-1.3,0.3-2.5,0.5-3.8c1.3-0.3,2.6-0.6,3.9-0.8
	c1.3-0.3,2.6-0.6,3.9-0.8c2.6-0.5,5.3-1,7.9-1.3c2.6-0.4,5.3-0.7,8-0.9c1.3-0.1,2.7-0.2,4-0.2c0.5,0,1,0,1.5,0c0.8,0,1.7,0,2.5,0
	l0,0c2.5,2.8,4.4,6.2,5.5,9.9c-0.2,0-0.3-0.1-0.5-0.1c-1.4-0.4-2.9-0.7-4.3-0.9c-1.7-0.2-3.3-0.2-5-0.2c0,0-0.1,0-0.1,0
	c-3.3,0-6.6,0.3-9.8,0.7c-3.3,0.5-6.5,1-9.8,1.8c-1.6,0.4-3.2,0.8-4.8,1.3C45.9,75.9,44.6,76.4,43.3,76.9"/>
<path class="st0" d="M57.5,63c-0.2-0.8-0.5-1.6-0.9-2.3c-0.5-1-1.1-1.8-1.7-2.7c-0.7-0.8-1.5-1.6-2.4-2.2c-0.9-0.6-1.8-1.1-2.9-1.2
	c2-0.5,4.1-0.8,6.3-0.8l0,0c2,0,3.9,0.2,5.8,0.7l0,0l0,0l0.1,0.1c0.5,0.6,0.9,1.2,1.3,1.8c0.4,0.7,0.8,1.3,1.1,2
	c0.4,0.7,0.7,1.4,1,2.1c0.2,0.5,0.4,1,0.6,1.5c-2,0.1-4,0.3-6,0.5C59,62.7,58.2,62.8,57.5,63"/>
<path class="st0" d="M75.9,62.9c-1.3-0.3-2.6-0.5-3.9-0.7c-1.4-0.1-2.7-0.2-4.1-0.2c-0.1,0-0.2,0-0.3,0c-0.5,0-1,0-1.5,0
	c0-1.4-0.5-2.8-1.1-4c-0.4-0.7-0.8-1.4-1.3-2c-0.5-0.6-1.1-1.1-1.8-1.4C67.4,55.8,72.2,58.8,75.9,62.9"/>
<path class="st0" d="M41.8,80.3h-7.5c-0.1-2.8,0.3-5.7,1-8.4c0.4-1.7,1.1-3.4,1.8-5c0.7-1.5,1.5-2.9,2.4-4.3
	c0.5,0.5,0.9,0.9,1.4,1.4l3.1,3l0,0c-0.5,1.2-0.9,2.4-1.2,3.7c-0.3,1.3-0.6,2.5-0.7,3.8C41.8,76.4,41.8,78.4,41.8,80.3"/>
<path class="st0" d="M44.1,67c-0.1-0.8-0.4-1.5-0.8-2.1C43,64.1,42.5,63.5,42,63c-0.6-0.5-1.1-1-1.8-1.4c-0.6-0.4-1.3-0.7-2.1-0.9
	c3.2-2.9,7.1-5,11.5-6.1l0,0l0.1,0c1.6,1.3,3,2.7,4.3,4.2c0.6,0.8,1.3,1.6,1.9,2.4l1.4,1.8c-1.8,0.3-3.6,0.7-5.3,1.2
	c-1.3,0.4-2.6,0.8-3.9,1.2C46.6,65.9,45.4,66.4,44.1,67"/>
<path class="st0" d="M32.8,80.3h-3.5c0.1-7.7,3.4-14.7,8.7-19.5l0,0l0,0c0.5,0.6,1,1.1,1.5,1.6c-1.1,1.2-2.1,2.6-3,4
	c-0.9,1.6-1.7,3.3-2.3,5C33.2,74.3,32.8,77.3,32.8,80.3"/>
<g id="Background">
</g>
<g>
	<g>
		<defs>
			<path id="SVGID_1_" d="M83.1,140.6L55.9,74.7l63.6-66.6l93.1,12.3L241,75.3l-4.8,65.7C236.2,141.1,99.3,137.7,83.1,140.6z"/>
		</defs>
		<clipPath id="SVGID_2_">
			<use xlink:href="#SVGID_1_"  style="overflow:visible;"/>
		</clipPath>
		<g class="st1">
			<ellipse class="st0" cx="151.3" cy="102.7" rx="77.4" ry="77.4"/>
			<g>
				<g>
					<path class="st2" d="M83.7,118.4C75,81,98.2,43.8,135.6,35.1c37.3-8.7,74.6,14.6,83.3,51.9s-14.6,74.6-51.9,83.3
						C129.7,178.9,92.4,155.7,83.7,118.4z"/>
					<g>
						<polygon class="st0" points="163.5,94.3 134,112.7 133.6,112.2 163.2,93.8 						"/>
						<path class="st0" d="M165.1,67.6L165.1,67.6l-0.4,0.5c0,0-3.8-2.9-9.3-6.3l0,0c-5.6-3.4-12.7-6.5-19.8-8.3l-0.2-0.8h0.3
							C150.3,55.8,165.1,67.6,165.1,67.6L165.1,67.6z"/>
						<path class="st0" d="M113.4,66c-2.6,9.5-3,18.3-2.8,24.6l0,0c0.2,6.4,1.1,10.4,1.1,10.4l0,0l-0.6,0.1c0,0-3.4-16.2,1.7-35.3
							l0,0L113.4,66L113.4,66z"/>
						<path class="st0" d="M188.3,108.7c3.3,14.1-0.8,30.3-0.8,30.4l0,0l0,0l-0.6-0.1c0,0,1-4,1.6-9.8l0,0
							c0.6-5.8,0.8-13.3-0.8-20.3l0,0c-0.2-1-0.5-2-0.8-2.9l0,0l0.6-0.2C187.7,106.7,188,107.7,188.3,108.7L188.3,108.7z"/>
						<path class="st0" d="M152.3,149.3c6,2.5,10.8,3.8,10.9,3.8l0,0l-0.2,0.7c0,0-19.4-5.1-29.6-15.6l0,0l0.4-0.4
							C138.9,142.9,146.2,146.8,152.3,149.3L152.3,149.3z"/>
						<path class="st0" d="M189,47.5c2.2,9.4-0.9,18-0.9,18.1l0,0l0,0l-0.6-0.2c0,0,0.8-2.1,1.2-5.4l0,0c0.5-3.3,0.7-7.7-0.4-12.3
							l0,0c-0.2-0.7-0.4-1.5-0.6-2.2l0,0l0.6-0.2C188.6,45.9,188.8,46.7,189,47.5L189,47.5z"/>
						<path class="st0" d="M94.3,116.2c2.9,1.2,4.8,1.5,4.8,1.5l0,0l0,0l-0.1,0.6c0,0-8-1.1-15.6-8.9l0,0l0.5-0.4
							C87.5,112.8,91.4,115,94.3,116.2L94.3,116.2z"/>
						<path class="st0" d="M111.5,140.6c0,0-0.7,6.9,1.3,15.6l0,0c0.2,1,0.5,2,0.8,3l0,0l-0.3,0.1c-0.3-1-0.6-2-0.8-3l0,0
							c-2-8.8-1.3-15.7-1.3-15.7l0,0L111.5,140.6L111.5,140.6z"/>
						<path class="st0" d="M218.6,97l-0.5,0.4c-1.4-1.5-5.4-3.6-9-5.3l0,0c-3.6-1.7-6.8-3-6.8-3l0,0l0.2-0.6
							C202.6,88.7,215.5,93.8,218.6,97L218.6,97z"/>
						<path class="st0" d="M219.4,116.5c-6.4,20.7-19.6,28.7-19.6,28.7l0,0l0,0l-0.2-0.3c0,0,3.3-2,7.3-6.5l0,0
							c4.1-4.6,8.9-11.7,12.1-22l0,0L219.4,116.5L219.4,116.5z"/>
						<path class="st2" d="M162.6,166.3c0,0-16.2,5-32.6,2.5c0,0,18.8,3.6,32.8-1.7L162.6,166.3z"/>
						<path class="st0" d="M101.5,61.7c0,0-5.6,1.7-10.6,8.3c0,0,2.8-5.2,10.6-9.6V61.7z"/>
						<path class="st0" d="M136.4,41.5c0,0,5.9-4.1,17.4-7.4c0,0-11.3,2.1-18,6.4L136.4,41.5z"/>
					</g>
					<g>
						<path class="st0" d="M202.1,143.9c-5,11.2-18,20.2-18,20.2c-12.7,4.7-22.7,3.5-22.7,3.5l0.4-14.8c11.4-3.9,26-15.4,26-15.4
							L202.1,143.9z"/>
						<path class="st0" d="M188.2,109c0,0-20.3-12.3-26-14c0,0,1.6-21.4,0.9-28.1c0,0,14.2-5.8,25.7-3.8c0,0,10.4,9.9,15.3,26.4
							C204.1,89.6,195.5,103.9,188.2,109z"/>
						<path class="st0" d="M137.7,53.8c0,0-17.4,5.7-25.4,15.9c0,0-6.3-5.3-12.4-7.7c0,0,7.5-14.7,15.4-18.8c0,0,10.2-5,23.9-3.7
							C139.1,39.4,137.3,45.4,137.7,53.8z"/>
						<path class="st0" d="M135.7,139.5c0,0-0.4-19.9,0.3-28.1c0,0-17.1-8.6-25.1-13.5c0,0-13.2,12.8-13.7,19.6
							c0,0,2.8,14.9,14,25.7C111.3,143.1,122.7,146.6,135.7,139.5z"/>
						<path class="st0" d="M134.4,138.7c0,0-0.4-18.9,0.3-26.7c0,0-16.2-8.1-23.8-12.9c0,0-12.5,12.2-13.1,18.6
							c0,0,2.7,14.1,13.3,24.4C111.1,142.1,122,145.4,134.4,138.7z"/>
						<path class="st0" d="M218.8,119.8c3-10.5,3.1-21.8,0.3-32.9c0-0.1-0.1-0.2-0.1-0.3c-0.2,3.2-0.7,7.7-2,10
							C217,96.6,220.1,110.1,218.8,119.8z"/>
						<path class="st0" d="M188.5,48.1c0,0,4.5,0.7,9.3,2.8c-10.6-9.5-24.1-15.7-38.5-17.4C167,35.3,180.6,39.4,188.5,48.1z"/>
						<path class="st0" d="M82.5,91.7c-1.3,8.2-1.2,16.8,0.7,25.3c0.1-2.6,0.4-5.2,1.4-7.1C84.6,109.9,82.8,101.5,82.5,91.7z"/>
						<path class="st0" d="M113,157.8c-5-0.7-11.1-6.2-15.2-10.6c9,10.8,21.2,18.7,34.7,22.5C122.8,165.7,113,157.8,113,157.8z"/>
					</g>
					<g class="st3">
						<path class="st0" d="M158.7,95.9l-20.6,12.7c-1.5,0.9-3.9,1-5.4,0.2l-18.3-9.7c-1.5-0.8-1.5-0.9,0.1-0.2l17.8,8
							c1.6,0.7,4.1,0.6,5.6-0.2l20.6-11C160.1,94.9,160.2,95,158.7,95.9z"/>
						<path class="st0" d="M189.1,109.3c0,0,2.8,18.2-1,28l13.5,5.8l-12-6.3C189.6,136.8,192.5,124.6,189.1,109.3z"/>
						<path class="st0" d="M202.3,144.2c0,0-3.3,9.1-14.7,17.6C187.6,161.8,198.3,155.8,202.3,144.2z"/>
						<path class="st0" d="M163.9,66.1c0,0-13.3-10.5-25.7-13.3c0,0-0.7-4.7,1.1-12.5c0,0-0.9,7.6-0.3,11.9
							C139,52.1,151.3,54.7,163.9,66.1z"/>
						<path class="st0" d="M112.7,69.8c0,0-2.8,12.5-1.1,27.5c0,0-0.2-17.4,1.5-25.2c0.2-1,1.1-2.7,1.8-3.4
							c2.8-2.7,10.3-9.2,22.4-14.3C137.4,54.5,123.5,58,112.7,69.8z"/>
						<path class="st0" d="M110.2,98.1c0,0-11.8,11-13.2,18.5C97,116.7,97.6,107.6,110.2,98.1z"/>
					</g>
				</g>
				<path class="st4" d="M218.9,87c-5.7-24.7-24-43.2-46.4-50.4c5.4,7.9,9.5,16.9,11.8,26.7c9.8,42-16.4,84-58.4,93.7
					c-5,1.2-10.1,1.8-15.1,2c15.7,11.2,35.9,15.9,56.1,11.2C204.3,161.6,227.5,124.3,218.9,87z"/>
			</g>
		</g>
	</g>
	<g>
		<g>
			<g>
				<path class="st0" d="M291.1,147.5c-92.6-13.6-186.9-13.6-279.6,0c0-26.2,0-52.4,0-78.7c92.6,14.7,186.9,14.7,279.6,0
					C291.1,95.1,291.1,121.3,291.1,147.5z"/>
				<g>
					<path class="st2" d="M56.6,97.3c0,0.5-0.1,0.9-0.3,1.4c-0.2,0.4-0.5,0.8-0.9,1.1c-0.4,0.3-0.9,0.6-1.4,0.7
						c-0.5,0.2-1.1,0.3-1.7,0.2c-0.6,0-1.1-0.1-1.6-0.3c-0.5-0.2-1-0.5-1.4-0.8s-0.7-0.7-0.9-1.2c-0.2-0.4-0.3-0.9-0.3-1.4
						s0.1-1,0.3-1.4s0.5-0.8,0.9-1.1c0.4-0.3,0.8-0.6,1.4-0.7c0.5-0.2,1.1-0.2,1.6-0.2c0.6,0,1.2,0.2,1.7,0.4c0.5,0.2,1,0.5,1.4,0.8
						s0.7,0.7,0.9,1.2C56.5,96.3,56.6,96.8,56.6,97.3z M55.9,102.9c0,6.9,0,13.7,0,20.6c-2.4,0.1-4.8,0.2-7.2,0.3c0-7,0-14,0-21
						C51.1,102.8,53.5,102.8,55.9,102.9z"/>
					<path class="st2" d="M84.5,115.5c0.2,0,0.4,0,0.6,0.1s0.4,0.1,0.5,0.3c1,0.8,2.1,1.7,3.1,2.5c-1.4,1.4-3.1,2.5-5.1,3.3
						s-4.5,1.2-7.3,1.3c-2.6,0.1-4.9-0.2-6.9-0.8c-2-0.6-3.8-1.6-5.2-2.8c-1.4-1.2-2.5-2.8-3.3-4.5c-0.8-1.8-1.1-3.7-1.1-5.8
						c0-2.1,0.4-4.1,1.2-5.8c0.8-1.8,2-3.3,3.5-4.5s3.3-2.1,5.3-2.8c2.1-0.6,4.3-0.9,6.8-0.8c1.3,0,2.5,0.2,3.6,0.4
						c1.1,0.2,2.2,0.5,3.1,0.8c1,0.3,1.9,0.7,2.7,1.2c0.8,0.5,1.5,1,2.2,1.5c-0.9,0.9-1.8,1.8-2.6,2.7c-0.2,0.2-0.4,0.3-0.6,0.5
						c-0.2,0.1-0.6,0.2-1,0.2c-0.3,0-0.5-0.1-0.8-0.2c-0.2-0.1-0.5-0.2-0.8-0.4c-0.3-0.1-0.6-0.3-0.9-0.5s-0.7-0.3-1.2-0.5
						s-1-0.3-1.6-0.4s-1.3-0.2-2.1-0.2c-1.3,0-2.5,0.1-3.6,0.5s-2,0.9-2.8,1.7c-0.8,0.7-1.4,1.7-1.8,2.8c-0.4,1.1-0.6,2.4-0.6,3.8
						s0.2,2.7,0.7,3.8c0.5,1.1,1.1,2,1.9,2.8c0.8,0.7,1.8,1.3,2.8,1.7c1.1,0.4,2.2,0.5,3.5,0.5c0.7,0,1.4-0.1,1.9-0.1
						c0.6-0.1,1.1-0.2,1.6-0.3c0.5-0.1,1-0.3,1.4-0.5s0.9-0.5,1.4-0.8c0.2-0.1,0.4-0.2,0.6-0.3C84,115.5,84.3,115.5,84.5,115.5z"/>
					<path class="st2" d="M122.5,121.6c-2,0-4.1,0.1-6.1,0.1c-0.7,0-1.2-0.1-1.6-0.3c-0.4-0.2-0.7-0.5-1-0.9c-0.7-1.5-1.3-2.9-2-4.4
						c-4.3,0-8.6,0.1-12.9,0.1c-0.7,1.5-1.3,3-2,4.6c-0.2,0.3-0.5,0.6-0.9,0.9s-1,0.4-1.6,0.4c-2,0.1-4.1,0.1-6.1,0.2
						c4.4-9,8.7-17.6,13.1-26.1c2.7,0.1,5.4,0.1,8,0.2C113.7,104.9,118.1,113.3,122.5,121.6z M100.7,112.1c3.1,0,6.2,0,9.2,0
						c-1-2.3-2.1-4.7-3.1-7c-0.2-0.4-0.5-1-0.7-1.6c-0.3-0.6-0.5-1.3-0.8-2c-0.2,0.7-0.5,1.4-0.8,2s-0.5,1.1-0.7,1.6
						C102.8,107.4,101.8,109.8,100.7,112.1z"/>
					<path class="st2" d="M130.1,96.7c0.2,0,0.4,0.1,0.6,0.1c0.2,0.1,0.4,0.2,0.5,0.3c0.2,0.1,0.4,0.3,0.6,0.5
						c5.4,5,10.7,10,16.1,14.9c-0.1-0.5-0.1-0.9-0.1-1.4c0-0.4,0-0.9,0-1.3c0-4.4,0-8.7,0-13.1c2.3,0,4.6,0,6.9,0
						c0,8.2,0,16.4,0,24.7c-1.4,0-2.7,0-4.1,0c-0.6,0-1.1-0.1-1.5-0.2s-0.8-0.4-1.2-0.7c-5.3-4.9-10.6-9.8-16-14.7
						c0,0.4,0.1,0.9,0.1,1.3s0,0.8,0,1.2c0,4.4,0,8.9,0,13.3c-2.3,0-4.6,0-6.9,0.1c0-8.3,0-16.7,0-25c1.4,0,2.8,0,4.1,0
						C129.6,96.7,129.9,96.7,130.1,96.7z"/>
					<path class="st2" d="M184.1,115.2c0.2,0,0.4,0,0.6,0.1c0.2,0.1,0.4,0.1,0.5,0.3c1,0.8,2.1,1.6,3.1,2.5
						c-1.4,1.3-3.1,2.3-5.1,2.9c-2.1,0.6-4.5,0.9-7.3,0.9c-2.6,0-4.9-0.4-6.9-1c-2-0.7-3.8-1.5-5.2-2.7c-1.4-1.1-2.5-2.5-3.3-4
						s-1.1-3.2-1.1-5s0.4-3.5,1.2-5.1c0.8-1.5,2-2.9,3.5-4s3.3-2,5.3-2.7c2.1-0.6,4.4-1,6.9-1c1.3,0,2.5,0.1,3.6,0.2
						c1.1,0.2,2.2,0.4,3.1,0.6c1,0.3,1.9,0.6,2.7,1s1.5,0.8,2.2,1.3c-0.9,0.9-1.8,1.8-2.6,2.7c-0.2,0.2-0.4,0.3-0.6,0.4
						c-0.2,0.1-0.6,0.2-1,0.2c-0.3,0-0.5,0-0.8-0.1c-0.2-0.1-0.5-0.2-0.8-0.3c-0.3-0.1-0.6-0.3-0.9-0.4c-0.3-0.2-0.7-0.3-1.2-0.4
						s-1-0.2-1.6-0.3c-0.6-0.1-1.3-0.1-2.1-0.1c-1.3,0-2.5,0.2-3.6,0.6s-2,0.9-2.8,1.6s-1.4,1.5-1.8,2.5c-0.4,1-0.6,2.1-0.6,3.4
						s0.2,2.4,0.7,3.4s1.1,1.8,1.9,2.5c0.8,0.7,1.8,1.2,2.8,1.6c1.1,0.4,2.2,0.5,3.5,0.6c0.7,0,1.4,0,2-0.1c0.6,0,1.1-0.1,1.6-0.2
						s1-0.3,1.4-0.5s0.9-0.5,1.4-0.8c0.2-0.1,0.4-0.2,0.6-0.3C183.6,115.2,183.9,115.2,184.1,115.2z"/>
					<path class="st2" d="M221.3,122.5c-2.6-0.1-5.3-0.2-7.9-0.2c0-3.7,0-7.5,0-11.2c-4.6,0-9.2,0-13.7,0c0,3.6,0,7.3,0,10.9
						c-2.6-0.1-5.3-0.1-7.9-0.2c0-8.5,0-16.9,0-25.4c2.6-0.1,5.3-0.1,7.9-0.2c0,3.6,0,7.2,0,10.8c4.6,0,9.2,0,13.7-0.1
						c0-3.7,0-7.4,0-11.1c2.6-0.1,5.3-0.2,7.9-0.3C221.3,104.6,221.3,113.5,221.3,122.5z"/>
					<path class="st2" d="M258.1,124c-2-0.1-4-0.2-6.1-0.3c-0.7,0-1.2-0.2-1.6-0.5c-0.4-0.3-0.7-0.7-0.9-1.1c-0.7-1.7-1.3-3.4-2-5.1
						c-4.3-0.1-8.6-0.2-12.8-0.3c-0.7,1.6-1.3,3.2-2,4.8c-0.2,0.3-0.5,0.7-0.9,0.9c-0.4,0.3-1,0.4-1.6,0.4c-2-0.1-4.1-0.1-6.1-0.2
						c4.4-8.9,8.7-18.1,13.1-27.6c2.7-0.1,5.3-0.2,8-0.4C249.4,104,253.7,113.8,258.1,124z M236.4,112.3c3.1,0,6.1,0,9.2,0.1
						c-1-2.6-2.1-5.2-3.1-7.8c-0.2-0.5-0.5-1.1-0.7-1.7c-0.3-0.7-0.5-1.4-0.8-2.2c-0.2,0.8-0.5,1.5-0.8,2.2s-0.5,1.3-0.7,1.8
						C238.5,107.2,237.4,109.8,236.4,112.3z"/>
				</g>
				<path class="st5" d="M285.8,149.7c-89.2-13.6-179.8-13.6-269,0c-1.8-0.7-3.5-1.4-5.3-2.2c92.6-13.6,186.9-13.6,279.6,0
					C289.3,148.3,287.5,149,285.8,149.7z"/>
			</g>
		</g>
	</g>
</g>
<g>
	<path class="st2" d="M27.3,115.3c3.1,0,5.9,1.4,7.9,3.7c1.9-2,3.1-4.6,3.1-7.6c0-2.7-1-5.2-2.7-7.2c-1.9,2.7-5,4.3-8.3,4.3
		c-3.3,0-6.4-1.6-8.3-4.3c-1.7,1.9-2.7,4.4-2.7,7.2c0,3,1.2,5.6,3.1,7.6C21.4,116.7,24.2,115.3,27.3,115.3z"/>
	<path class="st2" d="M20.1,103.4c1.6,2.4,4.3,3.8,7.2,3.8c2.9,0,5.6-1.4,7.2-3.8c0,0,0,0,0,0c-1.9-1.7-4.5-2.7-7.2-2.7
		C24.5,100.5,22,101.6,20.1,103.4C20.1,103.3,20.1,103.3,20.1,103.4z"/>
	<path class="st2" d="M34.1,120c-1.7-2.1-4.1-3.2-6.8-3.2c-2.6,0-5.1,1.2-6.8,3.2c0,0,0,0,0,0c1.9,1.5,4.2,2.4,6.8,2.4
		C29.9,122.4,32.2,121.5,34.1,120C34.1,120.1,34.1,120,34.1,120z"/>
</g>
<g>
	<path class="st2" d="M274.3,110.8v-2.5c-2.4-0.1-3.8-1.4-5.2-2.7c-0.8-0.7-1.5-1.4-2.4-1.9c-1.8,1.9-2.9,4.4-2.9,7.1H274.3z"/>
	<path class="st2" d="M274.3,113.9v-2.5h-10.5c0.1,2.8,1.2,5.3,2.9,7.1c0.9-0.5,1.7-1.2,2.4-1.9C270.5,115.3,271.9,114,274.3,113.9z
		"/>
	<path class="st2" d="M280,105.6c-1.3,1.3-2.7,2.6-5.2,2.7v2.5h10.5c-0.1-2.8-1.2-5.3-2.9-7.1C281.5,104.1,280.8,104.8,280,105.6z"
		/>
	<path class="st2" d="M282,103.3c-1.9-1.8-4.4-2.9-7.2-3v7.5c2.2-0.1,3.5-1.3,4.8-2.6C280.4,104.5,281.1,103.8,282,103.3z"/>
	<path class="st2" d="M274.9,111.3v2.5c2.4,0.1,3.8,1.4,5.2,2.7c0.8,0.7,1.5,1.4,2.4,1.9c1.8-1.9,2.9-4.4,2.9-7.1H274.9z"/>
	<path class="st2" d="M279.6,117c-1.3-1.3-2.6-2.5-4.8-2.6v7.5c2.8-0.1,5.3-1.2,7.2-3C281.1,118.4,280.4,117.7,279.6,117z"/>
	<path class="st2" d="M274.3,107.7v-7.5c-2.8,0.1-5.3,1.2-7.2,3c0.9,0.5,1.7,1.2,2.4,1.9C270.8,106.4,272.1,107.6,274.3,107.7z"/>
	<path class="st2" d="M274.3,114.4c-2.2,0.1-3.5,1.3-4.8,2.6c-0.7,0.7-1.5,1.4-2.4,1.9c1.9,1.8,4.4,2.9,7.2,3V114.4z"/>
</g>
<g>
	<path class="st0" d="M225,81.6c-0.8,0.9,0.3,2.5,1.9,1.8c1.7-0.7,1.3-2.6,0-2.6c0.1,0.1,0.2,0.2,0.2,0.4c0,0.2,0,0.3-0.1,0.4
		c-0.1,0.3-0.4,0.4-0.6,0.6c-0.3,0.1-0.6,0.2-0.9,0.1C225.3,82.2,225,81.9,225,81.6c0.2,0.3,0.4,0.3,0.6,0.3c0.2,0,0.4-0.1,0.6-0.2
		c0.2-0.1,0.4-0.2,0.5-0.4c0.1-0.2,0.3-0.3,0.2-0.6c-1.4-3.1-3.4-8.5-5.6-14.8c-1.5,1.1-2.7,1.4-3.4,1.5
		C221.1,73.3,223.7,78.5,225,81.6L225,81.6z"/>
	<path class="st0" d="M201.7,28.8c0.9,2,1.8,4,2.7,6.1c0.8,2.1,1.7,4.1,2.6,6.2c1.8,4.1,3.5,8.1,5.4,12.2l5.4,12.2l-0.2,0.1
		c-2.1-3.9-4.2-7.9-6.2-11.8c-2-4-4-7.9-6-11.9l-3-6c-1-2-1.9-4-2.7-6.1c-0.4-1-0.8-2.1-1.2-3.1c-0.4-1.1-0.8-2.1-1.1-3.2
		c-0.7-2.1-1.3-4.3-1.7-6.5l0.2-0.1C197.9,20.8,199.8,24.8,201.7,28.8L201.7,28.8z M196.2,12.9c-2.4,1.1-3.3,1.9-3.4,2.7
		c0,0.1,0,0.3,0,0.4c0.2,1,6.9,17.9,14.1,30.9c3.5,6.4,7.3,13.4,10.6,19.5c0.3,0,1.7,0.1,3.6-1.5c-2.3-6.6-4.8-14.1-7.1-21.1
		c-4.7-14.2-12.6-30.5-13.1-31.4c-0.1-0.1-0.2-0.2-0.3-0.3C199.8,11.7,198.6,11.8,196.2,12.9L196.2,12.9z"/>
</g>
<g>
	<path class="st0" d="M265.2,77h-7.2c-0.9-1.3-1.9-2.7-3-3.9c-4-4.7-8.9-8.7-14.5-11.3c-0.3-0.1-0.6-0.3-0.9-0.4
		c0.4-2.2-0.3-3.9-1.1-4.9c0,0,3.7,0.8,6.6,2c4.6,1.8,9.2,4.7,13.3,8.9c0.9,1,1.9,2,2.7,3.2C262.6,72.8,264,74.9,265.2,77"/>
	<path class="st0" d="M236,60.1c-1.4-0.5-2.9-0.9-4.4-1.1c-1.5-0.3-3-0.4-4.6-0.4c-0.4,0-0.8,0-1.2,0.1c-0.2,0-0.3,0-0.5,0.1
		c0.1-0.4,0.1-0.7,0.2-1.1l0-0.2l0,0l0,0c1.3-0.9,3.7-1.4,6.6-1.4h0.1c0.8,0,1.6,0,2.4,0.1C236,56.9,236.4,58.4,236,60.1"/>
	<path class="st0" d="M223.6,60.4c0.4-1.1,0.9-2,1.5-2.5c0.2-0.2,0.3-0.3,0.6-0.5c-0.2,0.4-0.3,0.9-0.5,1.4
		c-0.1,0.1-0.3,0.1-0.4,0.2C224.3,59.3,223.9,59.8,223.6,60.4"/>
	<path class="st0" d="M224.3,70.5c-0.7,0-1.4-0.1-2-0.5c0-0.6-0.1-1.2-0.1-1.7V68c0-0.8,0-1.5,0.1-2.2c0.2-2,0.6-3.7,1-5l0,0
		c0.3-0.7,0.8-1.3,1.4-1.7l0.2-0.1c-0.1,0.3-0.1,0.5-0.2,0.8c-0.2,0.9-0.3,1.7-0.3,2.6c-0.1,1.7,0.1,3.5,0.4,5.2
		c0.2,0.9,0.4,1.8,0.6,2.7C225.2,70.4,224.7,70.5,224.3,70.5"/>
	<path class="st0" d="M226.3,70.1c-0.2-0.9-0.4-1.8-0.6-2.7c-0.3-1.7-0.5-3.4-0.5-5.1c0-0.8,0-1.7,0.1-2.5c0-0.3,0.1-0.7,0.1-1
		c0.2,0,0.3,0,0.5-0.1c0.1,0,0.2,0,0.3,0c0.3,0,0.5,0,0.8,0c1.5,0.1,3,0.4,4.5,0.7c1.5,0.3,2.9,0.8,4.3,1.3c-0.5,1.6-1.5,3.4-2.9,5
		C231.2,67.8,228.7,69.5,226.3,70.1"/>
	<path class="st0" d="M256.4,77h-24.9c0.2-0.3,0.3-0.6,0.4-0.9c-0.5,0.2-1.4,0.6-2.5,0.9h-0.9c-0.3-0.7-0.5-1.4-0.8-2.2
		c-0.1-0.4-0.3-0.8-0.4-1.2c2.3-0.6,5.1-2,7.9-4.9c2.3-2.4,3.5-4.5,4.1-6.4c0.2,0.1,0.5,0.2,0.7,0.3c2.7,1.4,5.2,3,7.5,4.9
		c2.3,1.9,4.5,4,6.4,6.3C254.8,75,255.6,76,256.4,77"/>
	<path class="st0" d="M228.4,77h-4.8c-0.4-1.3-0.6-2.6-0.8-3.8c0.4,0.4,1.2,0.7,2.4,0.7c0.5,0,1.1-0.1,1.7-0.2
		c0.2,0.4,0.4,0.9,0.6,1.3C227.7,75.7,228,76.4,228.4,77"/>
	<path class="st2" d="M237.6,67.7c0,0,0-0.1,0-0.1V67.7 M262.5,58.4h-0.2C262.3,58.4,262.4,58.4,262.5,58.4
		C262.4,58.4,262.5,58.4,262.5,58.4"/>
</g>
</svg>
